%TF.GenerationSoftware,KiCad,Pcbnew,10.0.5*%
%TF.CreationDate,2026-08-23T10:36:05+01:00*%
%TF.ProjectId,STEREO_AMP_MODULE_V1,53544552-454f-45f4-914d-505f4d4f4455,rev?*%
%TF.SameCoordinates,Original*%
%TF.FileFunction,Paste,Top*%
%TF.FilePolarity,Positive*%
%FSLAX46Y46*%
G04 Gerber Fmt 4.6, Leading zero omitted, Abs format (unit mm)*
G04 Created by KiCad (PCBNEW 10.0.5) date 2026-08-23 10:36:05*
%MOMM*%
%LPD*%
G01*
G04 APERTURE LIST*
G04 Aperture macros list*
%AMRoundRect*
0 Rectangle with rounded corners*
0 $1 Rounding radius*
0 $2 $3 $4 $5 $6 $7 $8 $9 X,Y pos of 4 corners*
0 Add a 4 corners polygon primitive as box body*
4,1,4,$2,$3,$4,$5,$6,$7,$8,$9,$2,$3,0*
0 Add four circle primitives for the rounded corners*
1,1,$1+$1,$2,$3*
1,1,$1+$1,$4,$5*
1,1,$1+$1,$6,$7*
1,1,$1+$1,$8,$9*
0 Add four rect primitives between the rounded corners*
20,1,$1+$1,$2,$3,$4,$5,0*
20,1,$1+$1,$4,$5,$6,$7,0*
20,1,$1+$1,$6,$7,$8,$9,0*
20,1,$1+$1,$8,$9,$2,$3,0*%
G04 Aperture macros list end*
%ADD10RoundRect,0.200000X-0.275000X0.200000X-0.275000X-0.200000X0.275000X-0.200000X0.275000X0.200000X0*%
%ADD11RoundRect,0.237500X0.237500X-0.300000X0.237500X0.300000X-0.237500X0.300000X-0.237500X-0.300000X0*%
%ADD12RoundRect,0.237500X-0.237500X0.300000X-0.237500X-0.300000X0.237500X-0.300000X0.237500X0.300000X0*%
%ADD13RoundRect,0.200000X0.200000X0.275000X-0.200000X0.275000X-0.200000X-0.275000X0.200000X-0.275000X0*%
%ADD14RoundRect,0.237500X-0.300000X-0.237500X0.300000X-0.237500X0.300000X0.237500X-0.300000X0.237500X0*%
%ADD15RoundRect,0.237500X0.300000X0.237500X-0.300000X0.237500X-0.300000X-0.237500X0.300000X-0.237500X0*%
%ADD16RoundRect,0.200000X-0.200000X-0.275000X0.200000X-0.275000X0.200000X0.275000X-0.200000X0.275000X0*%
%ADD17R,2.250000X0.300000*%
%ADD18RoundRect,0.200000X0.275000X-0.200000X0.275000X0.200000X-0.275000X0.200000X-0.275000X-0.200000X0*%
G04 APERTURE END LIST*
D10*
%TO.C,R24*%
X112262500Y-101965000D03*
X112262500Y-103615000D03*
%TD*%
D11*
%TO.C,C28*%
X126119300Y-104288199D03*
X126119300Y-102563199D03*
%TD*%
D12*
%TO.C,C43*%
X160830000Y-75857500D03*
X160830000Y-77582500D03*
%TD*%
D13*
%TO.C,R32*%
X162480000Y-79320000D03*
X160830000Y-79320000D03*
%TD*%
D12*
%TO.C,C42*%
X162440000Y-75870000D03*
X162440000Y-77595000D03*
%TD*%
%TO.C,C37*%
X144835000Y-75915000D03*
X144835000Y-77640000D03*
%TD*%
D14*
%TO.C,C19*%
X110750000Y-107070000D03*
X112475000Y-107070000D03*
%TD*%
D12*
%TO.C,C32*%
X144795000Y-81005000D03*
X144795000Y-82730000D03*
%TD*%
D11*
%TO.C,C33*%
X158130000Y-82732500D03*
X158130000Y-81007500D03*
%TD*%
%TO.C,C35*%
X142175000Y-82730000D03*
X142175000Y-81005000D03*
%TD*%
%TO.C,C25*%
X139500000Y-97402500D03*
X139500000Y-95677500D03*
%TD*%
%TO.C,C36*%
X142155000Y-77630000D03*
X142155000Y-75905000D03*
%TD*%
D12*
%TO.C,C20*%
X127750000Y-78710000D03*
X127750000Y-80435000D03*
%TD*%
D15*
%TO.C,C18*%
X112475000Y-105500000D03*
X110750000Y-105500000D03*
%TD*%
D11*
%TO.C,C38*%
X158170000Y-77592500D03*
X158170000Y-75867500D03*
%TD*%
D12*
%TO.C,C40*%
X146465000Y-75922500D03*
X146465000Y-77647500D03*
%TD*%
D16*
%TO.C,R25*%
X110697500Y-100320000D03*
X112347500Y-100320000D03*
%TD*%
D17*
%TO.C,U1*%
X122220000Y-90840000D03*
X122220000Y-91490001D03*
X122220000Y-92140000D03*
X122220000Y-92790001D03*
X122220000Y-93440000D03*
X122220000Y-94090001D03*
X122220000Y-94740000D03*
X122220000Y-95390001D03*
X122220000Y-96040000D03*
X122220000Y-96689998D03*
X122220000Y-97340000D03*
X122220000Y-97989998D03*
X122220000Y-98639999D03*
X122220000Y-99289998D03*
X122220000Y-99939999D03*
X122220000Y-100589998D03*
X129720000Y-100589998D03*
X129720000Y-99939997D03*
X129720000Y-99289998D03*
X129720000Y-98639997D03*
X129720000Y-97989998D03*
X129720000Y-97339997D03*
X129720000Y-96689998D03*
X129720000Y-96039997D03*
X129720000Y-95389998D03*
X129720000Y-94739997D03*
X129720000Y-94089998D03*
X129720000Y-93439997D03*
X129720000Y-92789999D03*
X129720000Y-92139997D03*
X129720000Y-91489999D03*
X129720000Y-90840000D03*
%TD*%
D11*
%TO.C,C22*%
X133300000Y-80680000D03*
X133300000Y-78955000D03*
%TD*%
%TO.C,C17*%
X110692500Y-103812500D03*
X110692500Y-102087500D03*
%TD*%
%TO.C,C27*%
X139490000Y-106300000D03*
X139490000Y-104575000D03*
%TD*%
D13*
%TO.C,R29*%
X142240000Y-79307500D03*
X140590000Y-79307500D03*
%TD*%
D16*
%TO.C,R26*%
X116295000Y-109370000D03*
X117945000Y-109370000D03*
%TD*%
D18*
%TO.C,R28*%
X126140000Y-80350000D03*
X126140000Y-78700000D03*
%TD*%
D13*
%TO.C,R30*%
X146410000Y-79327500D03*
X144760000Y-79327500D03*
%TD*%
D18*
%TO.C,R27*%
X119220000Y-80385000D03*
X119220000Y-78735000D03*
%TD*%
D13*
%TO.C,R31*%
X158205000Y-79340000D03*
X156555000Y-79340000D03*
%TD*%
D12*
%TO.C,C14*%
X120870000Y-78477500D03*
X120870000Y-80202500D03*
%TD*%
D11*
%TO.C,C21*%
X134920000Y-80672500D03*
X134920000Y-78947500D03*
%TD*%
D12*
%TO.C,C26*%
X139470000Y-100695000D03*
X139470000Y-102420000D03*
%TD*%
D11*
%TO.C,C29*%
X124489300Y-104363199D03*
X124489300Y-102638199D03*
%TD*%
D12*
%TO.C,C34*%
X160900000Y-80987500D03*
X160900000Y-82712500D03*
%TD*%
D11*
%TO.C,C41*%
X156570000Y-77582500D03*
X156570000Y-75857500D03*
%TD*%
D12*
%TO.C,C24*%
X139470000Y-91845000D03*
X139470000Y-93570000D03*
%TD*%
D11*
%TO.C,C39*%
X140555000Y-77647500D03*
X140555000Y-75922500D03*
%TD*%
M02*
