M48
; DRILL file KiCad 10.0.5 date 2026-08-23T10:36:06
; FORMAT={-:-/ absolute / metric / decimal}
; #@! TF.CreationDate,2026-08-23T10:36:06+01:00
; #@! TF.GenerationSoftware,Kicad,Pcbnew,10.0.5
; #@! TF.FileFunction,MixedPlating,1,2
FMAT,2
METRIC
; #@! TA.AperFunction,Plated,PTH,ComponentDrill
T1C1.000
; #@! TA.AperFunction,Plated,PTH,ComponentDrill
T2C1.200
%
G90
G05
T1
X144.255Y-95.51
X144.255Y-101.56
X144.255Y-107.61
X144.265Y-89.09
X159.495Y-95.51
X159.495Y-101.56
X159.495Y-107.61
X159.505Y-89.09
T2
X104.532Y-73.92
X104.532Y-91.92
X106.735Y-104.28
X106.755Y-108.19
X108.703Y-76.5
X108.703Y-94.5
X108.81Y-72.037
X112.52Y-79.9
X116.19Y-79.88
X118.42Y-106.38
X119.94Y-82.92
X123.54Y-79.68
X126.81Y-72.037
X130.41Y-79.71
X132.593Y-69.93
X132.593Y-87.93
X136.79Y-105.34
X136.8Y-101.657
X136.84Y-92.79
X136.85Y-96.44
X137.985Y-76.865
X146.885Y-71.932
X149.095Y-76.907
X153.95Y-76.83
X158.96Y-72.02
X163.78Y-83.38
M30
